<?xml version="1.0" encoding="utf-8"?>
<?xml-stylesheet type="text/xsl" href="rss1.xsl"?>
<rss version="2.0" xmlns:atom="http://www.w3.org/2005/Atom" xmlns:content="http://purl.org/rss/1.0/modules/content/" xmlns:dc="http://purl.org/dc/elements/1.1/" xmlns:media="http://search.yahoo.com/mrss/">
<channel>
 <title>Getty</title>
 <link>http://www.gettyimg.com/</link>
 <atom:link href="http://www.gettyimg.com/" rel="self" type="application/rss+xml" />

 
                <item>
                <title><![CDATA[【HD Live Performances】FEED - Live From Detroit - The Concert at Michigan Central (2024) 1080i HDTV Backhaul FLAC 5.1 H.264-TrollHD]]></title>
                <link><![CDATA[https://sharemania.us/threads/live-from-detroit-the-concert-at-michigan-central-2024-1080i-hdtv-backhaul-flac-5-1-h-264-trollhd.249857/]]></link>
                <description><![CDATA[<article>
<blockquote class="messageText SelectQuoteContainer ugc baseHtml">
<div style="padding-left: 30px"><b><span style="color: rgb(255, 77, 77)"><span style="font-size: 22px">Live From Detroit - The Concert at Michigan Central (2024)</span></span></b><br>
<div style="padding-left: 30px"><b><span style="color: rgb(255, 77, 77)"><span style="font-size: 26px">1080i HDTV Backhaul FLAC 5.1 H.264-TrollHD</span></span></b>​</div></div><br>
<img src="https://images2.imgbox.com/2c/8e/gXYZdh2Q_o.jpg" class="bbCodeImage LbImage" alt="[​IMG]" data-url="https://images2.imgbox.com/2c/8e/gXYZdh2Q_o.jpg" style=""><br>
<br>
<div class="bbCodeBlock bbCodeCode">
<div class="type">Code:</div>
<pre>General
Unique ID                      : 93365464637201601166632295970485752064 (0x463D88CF338A76D8903A98A2AB2ED100)
Format                         : Matroska
Format version                 : Version 4
File size                      : 24.5 GiB
Duration                       : 1 h 49 min
Overall bit rate mode          : Variable
Overall bit rate               : 32.2 Mb/s
Encoded date                   : UTC 2024-06-08 06:01:53
Writing application            : mkvmerge v77.0 ('Elemental') 64-bit
Writing library                : libebml v1.4.4 + libmatroska v1.7.1

Video
ID                             : 1
Format                         : AVC
Format/Info                    : Advanced Video Codec
Format profile                 : High@L4.1
Format settings                : CABAC / 4 Ref Frames
Format settings, CABAC         : Yes
Format settings, Reference fra : 4 frames
Codec ID                       : V_MPEG4/ISO/AVC
Duration                       : 1 h 49 min
Bit rate                       : 30.5 Mb/s
Width                          : 1 920 pixels
Height                         : 1 080 pixels
Display aspect ratio           : 16:9
Frame rate mode                : Variable
Frame rate                     : 59.940 (59940/1000) FPS
Original frame rate            : 29.970 (30000/1001) FPS
Color space                    : YUV
Chroma subsampling             : 4:2:0
Bit depth                      : 8 bits
Scan type                      : Interlaced
Scan type, store method        : Separated fields
Scan order                     : Top Field First
Bits/(Pixel*Frame)             : 0.246
Stream size                    : 23.3 GiB (95%)
Default                        : Yes
Forced                         : No
Color range                    : Limited
Color primaries                : BT.709
Transfer characteristics       : BT.709
Matrix coefficients            : BT.709

Audio
ID                             : 2
Format                         : FLAC
Format/Info                    : Free Lossless Audio Codec
Codec ID                       : A_FLAC
Duration                       : 1 h 49 min
Bit rate mode                  : Variable
Bit rate                       : 1 641 kb/s
Channel(s)                     : 6 channels
Channel layout                 : L R C LFE Ls Rs
Sampling rate                  : 48.0 kHz
Frame rate                     : 11.719 FPS (4096 SPF)
Bit depth                      : 16 bits
Compression mode               : Lossless
Stream size                    : 1.25 GiB (5%)
Writing library                : libFLAC 1.3.2 (UTC 2019-08-04)
Language                       : English
Default                        : Yes
Forced                         : No

</pre>
</div>
<div class="bbCodeBlock bbCodeVfcHH HiddenContent">
<div class="attribution type">Hidden Content:</div>
<blockquote>You must either reply or click 'Like' to see the hidden information contained here.</blockquote>
</div><br>
<br>
<b><span style="color: rgb(255, 77, 77)">Credits goes to <a href="https://sharemania.us/members/1219/" class="username" data-user="1219, @TrollHD">@TrollHD</a> !!!<br>
<br>
<img src="styles/default/xenforo/smilies/super_man-48.png" class="mceSmilie" alt=":super:" title="Super Man    :super:"><img src="styles/default/xenforo/smilies/super_man-48.png" class="mceSmilie" alt=":super:" title="Super Man    :super:"><img src="styles/default/xenforo/smilies/super_man-48.png" class="mceSmilie" alt=":super:" title="Super Man    :super:"></span></b>
<div class="messageTextEndMarker">&nbsp;</div>
</blockquote>
</article>]]></description>
                <author><![CDATA[Dream66]]></author>
                </item>

                
                <item>
                <title><![CDATA[【Requests】[REQ VID] - Doja Cat Wireless Festival Live in London (Prime Video Livestream)]]></title>
                <link><![CDATA[https://sharemania.us/threads/doja-cat-wireless-festival-live-in-london-prime-video-livestream.249856/]]></link>
                <description><![CDATA[<article>
<blockquote class="messageText SelectQuoteContainer ugc baseHtml">
Hi guys! Today the Wireless festival is being broadcast on PrimeVideo, I tried to capture it but it doesn't capture it easily. Doja should be on stage in a few hours, if anyone could capture the show I would be grateful.<br>
<a href="https://www.primevideo.com/detail/0II94LP74OGQB7NTJB86RSYY6D" target="_blank" class="externalLink" rel="nofollow">https://www.primevideo.com/detail/0II94LP74OGQB7NTJB86RSYY6D</a>
<div class="messageTextEndMarker">&nbsp;</div>
</blockquote>
</article>]]></description>
                <author><![CDATA[TEXTCARL]]></author>
                </item>

                </channel></rss>